HIERARCHY
ROOT Hips
{
    OFFSET 0.000000 0.000000 0.000000
    CHANNELS 6 Xposition Yposition Zposition Zrotation Xrotation Yrotation
    JOINT Spine
    {
        OFFSET -0.000000 14.517291 0.000000
        CHANNELS 3 Zrotation Xrotation Yrotation
        JOINT Spine1
        {
            OFFSET -0.000000 37.558300 0.000000
            CHANNELS 3 Zrotation Xrotation Yrotation
            JOINT Neck
            {
                OFFSET -0.000000 37.404057 3.400369
                CHANNELS 3 Zrotation Xrotation Yrotation
                JOINT Head
                {
                    OFFSET -0.000000 24.785618 -3.540803
                    CHANNELS 3 Zrotation Xrotation Yrotation
                    End Site
                    {
                        OFFSET -0.000000 35.408028 0.000000
                    }
                }
            }
            JOINT LeftShoulder
            {
                OFFSET 6.992933 33.973492 -0.192664
                CHANNELS 3 Zrotation Xrotation Yrotation
                JOINT LeftArm
                {
                    OFFSET 21.527611 0.000000 0.000000
                    CHANNELS 3 Zrotation Xrotation Yrotation
                    JOINT LeftForeArm
                    {
                        OFFSET 56.353916 0.000000 0.000000
                        CHANNELS 3 Zrotation Xrotation Yrotation
                        JOINT LeftHand
                        {
                            OFFSET 47.774071 0.000000 0.000000
                            CHANNELS 3 Zrotation Xrotation Yrotation
                            End Site
                            {
                                OFFSET 26.556021 0.000000 0.000000
                            }
                        }
                    }
                }
            }
            JOINT RightShoulder
            {
                OFFSET -7.065357 33.973492 -0.192664
                CHANNELS 3 Zrotation Xrotation Yrotation
                JOINT RightArm
                {
                    OFFSET -21.527611 0.000000 0.000000
                    CHANNELS 3 Zrotation Xrotation Yrotation
                    JOINT RightForeArm
                    {
                        OFFSET -56.353916 0.000000 0.000000
                        CHANNELS 3 Zrotation Xrotation Yrotation
                        JOINT RightHand
                        {
                            OFFSET -47.774071 0.000000 0.000000
                            CHANNELS 3 Zrotation Xrotation Yrotation
                            End Site
                            {
                                OFFSET -26.556021 0.000000 0.000000
                            }
                        }
                    }
                }
            }
        }
    }
    JOINT LeftUpLeg
    {
        OFFSET 17.704014 0.000000 0.000000
        CHANNELS 3 Zrotation Xrotation Yrotation
        JOINT LeftLeg
        {
            OFFSET -0.000000 -81.181816 0.000000
            CHANNELS 3 Zrotation Xrotation Yrotation
            JOINT LeftFoot
            {
                OFFSET -0.000000 -62.821102 0.000000
                CHANNELS 3 Zrotation Xrotation Yrotation
                JOINT LeftToeBase
                {
                    OFFSET -0.000000 -11.507608 26.556021
                    CHANNELS 3 Zrotation Xrotation Yrotation
                    End Site
                    {
                        OFFSET -0.000000 0.000000 7.081605
                    }
                }
            }
        }
    }
    JOINT RightUpLeg
    {
        OFFSET -17.704014 0.000000 0.000000
        CHANNELS 3 Zrotation Xrotation Yrotation
        JOINT RightLeg
        {
            OFFSET -0.000000 -81.181816 0.000000
            CHANNELS 3 Zrotation Xrotation Yrotation
            JOINT RightFoot
            {
                OFFSET -0.000000 -62.821102 0.000000
                CHANNELS 3 Zrotation Xrotation Yrotation
                JOINT RightToeBase
                {
                    OFFSET -0.000000 -11.507608 26.556021
                    CHANNELS 3 Zrotation Xrotation Yrotation
                    End Site
                    {
                        OFFSET -0.000000 0.000000 7.081605
                    }
                }
            }
        }
    }
}
MOTION
Frames:    11
Frame Time:    0.008333
-4.758669    152.778290    -14.018789    -1.091460    1.037638    19.106419    -0.072975    1.080909    9.497537    -5.371914    -0.197874    3.156795    0.877492    -1.381309    -11.664073    10.420712    0.639957    -10.875612    1.905924    3.048451    -8.421532    -42.396408    20.036758    -44.683380    -12.214170    -13.302823    -130.358078    3.607358    -37.561581    -5.138774    -9.948299    0.935785    3.680023    27.815449    -18.517933    66.958939    -7.916381    -29.805603    17.021027    17.512041    -23.145115    39.024845    2.233829    -33.852478    -27.078794    -10.745481    21.596601    -19.871252    -9.992019    3.296314    29.960402    0.000000    0.000000    0.000000    1.931868    12.302901    -9.245773    3.799989    20.443264    -0.857811    -3.156599    -28.839806    -7.251192    0.000000    0.000000    0.000000    
-4.761916    152.774155    -14.040640    -1.083179    1.048461    19.158958    -0.074196    1.077910    9.500158    -5.313603    -0.175334    3.158818    0.771215    -1.361686    -11.708920    10.480353    0.586685    -10.892279    1.853865    3.050589    -8.402893    -42.337925    20.072109    -44.723469    -12.192278    -13.362656    -130.342834    3.572428    -37.562126    -5.178001    -9.881055    1.110932    3.721590    27.801714    -18.242977    66.965675    -8.032918    -29.735182    16.867636    17.391436    -23.112429    38.977177    2.197316    -33.852848    -27.091722    -10.720830    21.553448    -19.919775    -10.040082    3.305761    29.986418    0.000000    0.000000    0.000000    1.937979    12.345657    -9.259820    3.809792    20.442989    -0.883336    -3.181878    -28.934969    -7.288079    0.000000    0.000000    0.000000    
-4.764159    152.774567    -14.065130    -1.071135    1.070411    19.204567    -0.075676    1.068159    9.512760    -5.270627    -0.153913    3.164083    0.671015    -1.359551    -11.755978    10.538658    0.558708    -10.914820    1.800823    3.032613    -8.398290    -42.290409    20.107306    -44.730579    -12.190758    -13.384104    -130.336472    3.569217    -37.573833    -5.196127    -9.832573    1.282920    3.767234    27.845490    -17.973787    66.970116    -8.165437    -29.639357    16.724567    17.216393    -23.076668    38.876904    2.163130    -33.860386    -27.107306    -10.704476    21.501732    -19.963402    -10.092660    3.321856    30.011002    0.000000    0.000000    0.000000    1.931946    12.328825    -9.262167    3.821141    20.437517    -0.880349    -3.230134    -28.956015    -7.347184    0.000000    0.000000    0.000000    
-4.771031    152.773880    -14.084661    -1.061914    1.078593    19.248121    -0.061914    1.067630    9.522151    -5.254968    -0.129374    3.168414    0.593935    -1.365116    -11.802353    10.598767    0.542351    -10.941214    1.771691    3.014638    -8.402382    -42.262123    20.138809    -44.710594    -12.148300    -13.502954    -130.349869    3.379581    -37.594780    -5.269452    -9.758856    1.443211    3.818205    27.896500    -17.712673    66.983765    -8.254330    -29.653921    16.570560    17.115030    -23.129667    38.841381    2.141693    -33.851131    -27.124777    -10.686535    21.444149    -19.981318    -10.148870    3.321562    30.013369    0.000000    0.000000    0.000000    1.939355    12.336884    -9.288314    3.816563    20.409540    -0.906760    -3.247632    -28.976162    -7.339142    0.000000    0.000000    0.000000    
-4.782007    152.778275    -14.108652    -1.053319    1.094847    19.287207    -0.064085    1.077038    9.539874    -5.226336    -0.132172    3.174224    0.506242    -1.374256    -11.847708    10.682262    0.538562    -10.962771    1.742662    3.004152    -8.398062    -42.252682    20.157963    -44.700737    -12.148762    -13.511292    -130.365997    3.376200    -37.610054    -5.264067    -9.695182    1.580353    3.850895    27.938009    -17.435871    66.985168    -8.303335    -29.704359    16.441404    16.997683    -23.232656    38.787262    2.123741    -33.850479    -27.124868    -10.666868    21.381786    -20.000395    -10.242014    3.321103    30.025425    0.000000    0.000000    0.000000    1.940938    12.333404    -9.292639    3.821967    20.382500    -0.893913    -3.289427    -28.992821    -7.389379    0.000000    0.000000    0.000000    
-4.791689    152.785400    -14.129010    -1.052055    1.106959    19.319008    -0.049039    1.077193    9.557819    -5.217643    -0.128762    3.180403    0.461925    -1.356016    -11.893442    10.725808    0.503778    -10.994214    1.723110    3.008478    -8.383385    -42.238724    20.183821    -44.710625    -12.151352    -13.532331    -130.373444    3.376211    -37.635567    -5.252826    -9.614279    1.755669    3.893920    28.021206    -17.205608    67.013695    -8.341635    -29.750357    16.316372    16.920900    -23.322395    38.708019    2.118312    -33.845108    -27.126968    -10.648939    21.319456    -20.017830    -10.354198    3.293557    30.060232    0.000000    0.000000    0.000000    1.949049    12.327545    -9.278125    3.831878    20.361202    -0.894658    -3.345435    -28.992456    -7.453023    0.000000    0.000000    0.000000    
-4.801860    152.792587    -14.148015    -1.044296    1.119068    19.346809    -0.036909    1.073049    9.581507    -5.222660    -0.114770    3.188992    0.411026    -1.343292    -11.943884    10.807139    0.471682    -11.024599    1.711987    3.005397    -8.362225    -42.231125    20.210627    -44.724094    -12.148714    -13.542746    -130.380310    3.411485    -37.643719    -5.237130    -9.536572    1.898561    3.938938    27.984058    -16.868614    66.964264    -8.473437    -29.905190    16.186735    16.954844    -23.475494    38.649727    2.113204    -33.835667    -27.139824    -10.640702    21.251926    -20.011940    -10.460275    3.263690    30.087393    0.000000    0.000000    0.000000    1.947273    12.324816    -9.240990    3.850919    20.339914    -0.898287    -3.406767    -28.997362    -7.524435    0.000000    0.000000    0.000000    
-4.812376    152.802185    -14.169802    -1.045449    1.132517    19.361399    -0.020112    1.069271    9.611842    -5.210452    -0.115417    3.199123    0.342453    -1.319306    -11.998467    10.884415    0.444726    -11.057433    1.677886    3.009823    -8.354296    -42.231071    20.220867    -44.715004    -12.154005    -13.544680    -130.389191    3.406587    -37.658871    -5.219083    -9.477229    2.042567    3.991902    28.118366    -16.665218    66.982437    -8.453022    -29.913181    16.071392    16.866640    -23.539219    38.548237    2.123250    -33.831852    -27.126638    -10.627669    21.192276    -19.999962    -10.561332    3.243105    30.088104    0.000000    0.000000    0.000000    1.945722    12.316261    -9.183753    3.883765    20.318392    -0.871860    -3.458383    -28.995937    -7.628146    0.000000    0.000000    0.000000    
-4.827270    152.815201    -14.187767    -1.043355    1.138633    19.369740    -0.015633    1.063877    9.647637    -5.189241    -0.107083    3.211467    0.272459    -1.293979    -12.053837    10.981363    0.418592    -11.088229    1.645910    3.017337    -8.342372    -42.217121    20.238815    -44.722397    -12.165423    -13.555494    -130.402527    3.482801    -37.696915    -5.167124    -9.412081    2.207516    4.036645    28.151178    -16.402107    66.990906    -8.564190    -30.027927    15.895772    16.976633    -23.615791    38.590809    2.141253    -33.814850    -27.114054    -10.617977    21.124163    -19.998278    -10.668630    3.208498    30.108727    0.000000    0.000000    0.000000    1.948445    12.305847    -9.137717    3.901100    20.312292    -0.857300    -3.512982    -28.986694    -7.709070    0.000000    0.000000    0.000000    
-4.838145    152.831680    -14.209808    -1.040002    1.150863    19.370863    -0.009774    1.056814    9.683221    -5.173173    -0.102455    3.223565    0.190906    -1.260003    -12.117682    11.098639    0.384883    -11.122512    1.612789    3.020108    -8.330664    -42.211018    20.259495    -44.720337    -12.170518    -13.573423    -130.408936    3.485066    -37.724041    -5.162455    -9.344703    2.336442    4.098900    28.275509    -16.212040    66.992981    -8.550672    -30.020861    15.774798    16.891733    -23.658112    38.514187    2.155692    -33.802498    -27.106770    -10.612810    21.051571    -19.978977    -10.770967    3.185105    30.142735    0.000000    0.000000    0.000000    1.942634    12.292334    -9.061005    3.929410    20.297611    -0.832859    -3.601451    -28.971764    -7.821981    0.000000    0.000000    0.000000    
-4.850930    152.846710    -14.228646    -1.032958    1.153324    19.355963    -0.012815    1.056479    9.723857    -5.138479    -0.094847    3.237498    0.119525    -1.246861    -12.166636    11.176490    0.368820    -11.149977    1.558146    3.007211    -8.321298    -42.216473    20.271860    -44.678871    -12.178054    -13.568523    -130.425476    3.469083    -37.741394    -5.155805    -9.294100    2.458168    4.151145    28.377447    -15.988444    67.010834    -8.596060    -29.978144    15.597954    16.841537    -23.648474    38.432346    2.180426    -33.776993    -27.087069    -10.590788    20.999517    -19.985561    -10.770344    3.130942    30.129885    0.000000    0.000000    0.000000    1.934868    12.287329    -8.988093    3.953992    20.289442    -0.836972    -3.634783    -28.961029    -7.896964    0.000000    0.000000    0.000000    
